<svg xmlns="http://www.w3.org/2000/svg" width="20" height="20" fill="none" viewBox="0 0 20 20"><path fill="#202020" d="M16.139 1.536h-.746V.781a.781.781 0 1 0-1.562 0v.755H6.169V.781a.781.781 0 1 0-1.562 0v.755h-.746A3.867 3.867 0 0 0 0 5.4v10.738A3.867 3.867 0 0 0 3.861 20H16.14A3.867 3.867 0 0 0 20 16.137V5.399a3.867 3.867 0 0 0-3.861-3.863M3.86 3.1h.746v1.523a.781.781 0 1 0 1.562 0V3.1h7.662v1.523a.781.781 0 1 0 1.562 0V3.1h.746c1.268 0 2.3 1.032 2.3 2.3v.747H1.561V5.4c0-1.268 1.031-2.3 2.3-2.3M16.14 18.438H3.86a2.303 2.303 0 0 1-2.3-2.301V7.708h16.877v8.429c0 1.268-1.031 2.3-2.3 2.3m-9.2-7.657a.78.78 0 0 1-.78.781H4.62a.781.781 0 0 1 0-1.562h1.536c.431 0 .781.35.781.781m9.224 0a.78.78 0 0 1-.781.781h-1.536a.781.781 0 0 1 0-1.562h1.536c.43 0 .78.35.78.781m-4.617 0a.78.78 0 0 1-.78.781H9.227a.781.781 0 0 1 0-1.562h1.535a.78.78 0 0 1 .781.781m-4.607 4.61a.78.78 0 0 1-.78.78H4.62a.781.781 0 0 1 0-1.562h1.536c.431 0 .781.35.781.782m9.224 0a.78.78 0 0 1-.781.78h-1.536a.781.781 0 0 1 0-1.562h1.536c.43 0 .78.35.78.782m-4.617 0a.78.78 0 0 1-.78.78H9.227a.781.781 0 0 1 0-1.562h1.535c.432 0 .781.35.781.782"/></svg>